# MagicaVoxel @ Ephtracy

# group
o 

# material
mtllib coin.mtl
usemtl palette

# normals
vn -1 0 0
vn 1 0 0
vn 0 0 1
vn 0 0 -1
vn 0 -1 0
vn 0 1 0

# texcoords
vt 0.306641 0.5
vt 0.482422 0.5

# verts
v -0.2 0 0.3
v -0.2 0 0.2
v -0.2 0 0.1
v -0.2 0.1 0.3
v -0.2 0.1 0.2
v -0.2 0.1 0.1
v -0.2 0.5 0.2
v -0.2 0.5 0.1
v 0.1 0 0.3
v 0.1 0 0.2
v 0.1 0.1 0.3
v 0.1 0.1 0.2
v 0.1 0.3 0.2
v 0.1 0.3 0.1
v 0.1 0.5 0.2
v 0.1 0.5 0.1
v 0.2 0 0.2
v 0.2 0 0.1
v 0.2 0.3 0.2
v 0.2 0.3 0.1
v -0.2 0 0.3
v -0.2 0.1 0.3
v 0.1 0 0.3
v 0.1 0.1 0.3
v -0.2 0.1 0.2
v -0.2 0.5 0.2
v 0.1 0 0.2
v 0.1 0.1 0.2
v 0.1 0.3 0.2
v 0.1 0.5 0.2
v 0.2 0 0.2
v 0.2 0.3 0.2
v -0.2 0 0.1
v -0.2 0.1 0.1
v -0.2 0.5 0.1
v 0.1 0 0.1
v 0.1 0.1 0.1
v 0.1 0.3 0.1
v 0.1 0.5 0.1
v 0.2 0 0.1
v 0.2 0.3 0.1
v -0.2 0 0.3
v 0.1 0 0.3
v -0.2 0 0.2
v 0.1 0 0.2
v 0.2 0 0.2
v -0.2 0 0.1
v 0.1 0 0.1
v 0.2 0 0.1
v -0.2 0.1 0.3
v 0.1 0.1 0.3
v -0.2 0.1 0.2
v 0.1 0.1 0.2
v 0.1 0.3 0.2
v 0.2 0.3 0.2
v 0.1 0.3 0.1
v 0.2 0.3 0.1
v -0.2 0.5 0.2
v 0.1 0.5 0.2
v -0.2 0.5 0.1
v 0.1 0.5 0.1

# faces
f 4/2/1 2/2/1 1/2/1
f 5/1/1 3/1/1 2/1/1
f 5/2/1 2/2/1 4/2/1
f 6/1/1 3/1/1 5/1/1
f 7/2/1 6/2/1 5/2/1
f 8/2/1 6/2/1 7/2/1
f 9/2/2 10/2/2 11/2/2
f 11/2/2 10/2/2 12/2/2
f 13/2/2 14/2/2 15/2/2
f 15/2/2 14/2/2 16/2/2
f 17/2/2 18/2/2 19/2/2
f 19/2/2 18/2/2 20/2/2
f 23/2/3 22/2/3 21/2/3
f 24/2/3 22/2/3 23/2/3
f 28/2/3 26/2/3 25/2/3
f 29/2/3 26/2/3 28/2/3
f 30/2/3 26/2/3 29/2/3
f 31/2/3 28/2/3 27/2/3
f 31/2/3 29/2/3 28/2/3
f 32/2/3 29/2/3 31/2/3
f 33/1/4 34/1/4 36/1/4
f 34/2/4 35/2/4 37/2/4
f 36/1/4 34/1/4 37/1/4
f 37/2/4 35/2/4 38/2/4
f 38/2/4 35/2/4 39/2/4
f 36/2/4 37/2/4 40/2/4
f 37/2/4 38/2/4 40/2/4
f 40/2/4 38/2/4 41/2/4
f 44/2/5 43/2/5 42/2/5
f 45/2/5 43/2/5 44/2/5
f 47/1/5 45/1/5 44/1/5
f 48/2/5 46/2/5 45/2/5
f 48/1/5 45/1/5 47/1/5
f 49/2/5 46/2/5 48/2/5
f 50/2/6 51/2/6 52/2/6
f 52/2/6 51/2/6 53/2/6
f 54/2/6 55/2/6 56/2/6
f 56/2/6 55/2/6 57/2/6
f 58/2/6 59/2/6 60/2/6
f 60/2/6 59/2/6 61/2/6
