# MagicaVoxel @ Ephtracy

# group
o 

# material
mtllib untitled.mtl
usemtl palette

# normals
vn -1 0 0
vn 1 0 0
vn 0 0 1
vn 0 0 -1
vn 0 -1 0
vn 0 1 0

# texcoords
vt 0.560547 0.5
vt 0.849609 0.5
vt 0.869141 0.5
vt 0.958984 0.5

# verts
v -1 0 -1
v -1 0 -1.1
v -1 0.1 -1
v -1 0.1 -1.1
v -1 0.2 -1
v -1 0.2 -1.1
v -0.9 0 -0.8
v -0.9 0 -1
v -0.9 0.1 -0.8
v -0.9 0.1 -1
v -0.9 0.2 -0.8
v -0.9 0.2 -1
v -0.8 0 -0.6
v -0.8 0 -0.8
v -0.8 0.1 -0.6
v -0.8 0.1 -0.8
v -0.8 0.2 -0.6
v -0.8 0.2 -0.8
v -0.7 0 -0.4
v -0.7 0 -0.6
v -0.7 0.1 -0.4
v -0.7 0.1 -0.6
v -0.7 0.2 -0.4
v -0.7 0.2 -0.6
v -0.6 0 -0.2
v -0.6 0 -0.4
v -0.6 0.1 -0.2
v -0.6 0.1 -0.4
v -0.6 0.2 -0.2
v -0.6 0.2 -0.4
v -0.5 0 0
v -0.5 0 -0.2
v -0.5 0.1 0
v -0.5 0.1 -0.2
v -0.5 0.2 0
v -0.5 0.2 -0.1
v -0.5 0.2 -0.2
v -0.5 0.3 0
v -0.5 0.3 -0.1
v -0.4 0 0.2
v -0.4 0 0
v -0.4 0.1 0.2
v -0.4 0.1 0.1
v -0.4 0.1 0
v -0.4 0.2 0.2
v -0.4 0.2 0.1
v -0.4 0.2 0
v -0.4 0.3 0.1
v -0.4 0.3 0
v -0.3 0 0.4
v -0.3 0 0.2
v -0.3 0.1 0.4
v -0.3 0.1 0.2
v -0.3 0.2 0.4
v -0.3 0.2 0.2
v -0.2 0 0.6
v -0.2 0 0.4
v -0.2 0.1 0.6
v -0.2 0.1 0.4
v -0.2 0.2 0.6
v -0.2 0.2 0.4
v -0.1 0 0.8
v -0.1 0 0.6
v -0.1 0.1 0.8
v -0.1 0.1 0.6
v -0.1 0.2 0.8
v -0.1 0.2 0.6
v 0 0 1
v 0 0 0.8
v 0 0.1 1
v 0 0.1 0.8
v 0 0.2 1
v 0 0.2 0.8
v 0.5 0.2 0
v 0.5 0.2 -0.1
v 0.5 0.2 -0.2
v 0.5 0.2 -0.3
v 0.5 0.3 0
v 0.5 0.3 -0.1
v 0.5 0.3 -0.2
v 0.5 0.3 -0.3
v 0.6 0.2 -0.4
v 0.6 0.2 -0.5
v 0.6 0.3 -0.4
v 0.6 0.3 -0.5
v -0.3 0.2 0.1
v -0.3 0.2 -0.1
v -0.3 0.3 0.1
v -0.3 0.3 -0.1
v 0.2 0 1
v 0.2 0 0.8
v 0.2 0.1 1
v 0.2 0.1 0.8
v 0.2 0.2 1
v 0.2 0.2 0.8
v 0.3 0 0.8
v 0.3 0 0.6
v 0.3 0.1 0.8
v 0.3 0.1 0.6
v 0.3 0.2 0.8
v 0.3 0.2 0.6
v 0.4 0 0.6
v 0.4 0 0.3
v 0.4 0.1 0.6
v 0.4 0.1 0.3
v 0.4 0.2 0.6
v 0.4 0.2 0.3
v 0.5 0 0.3
v 0.5 0 0.2
v 0.5 0 0.1
v 0.5 0.1 0.1
v 0.5 0.2 0.3
v 0.5 0.2 0.2
v 0.5 0.2 0.1
v 0.6 0 0.1
v 0.6 0 -0.2
v 0.6 0.1 0.1
v 0.6 0.1 0
v 0.6 0.1 -0.1
v 0.6 0.1 -0.2
v 0.6 0.2 0.1
v 0.6 0.2 0
v 0.6 0.2 -0.1
v 0.6 0.3 0
v 0.6 0.3 -0.1
v 0.7 0 -0.2
v 0.7 0 -0.4
v 0.7 0.1 -0.1
v 0.7 0.1 -0.2
v 0.7 0.1 -0.4
v 0.7 0.2 -0.1
v 0.7 0.2 -0.2
v 0.7 0.2 -0.3
v 0.7 0.2 -0.4
v 0.7 0.2 -0.5
v 0.7 0.3 -0.2
v 0.7 0.3 -0.3
v 0.7 0.3 -0.4
v 0.7 0.3 -0.5
v 0.8 0 -0.4
v 0.8 0 -0.7
v 0.8 0.1 -0.4
v 0.8 0.1 -0.7
v 0.8 0.2 -0.4
v 0.8 0.2 -0.7
v 0.9 0 -0.7
v 0.9 0 -0.8
v 0.9 0 -0.9
v 0.9 0.1 -0.8
v 0.9 0.1 -0.9
v 0.9 0.2 -0.7
v 0.9 0.2 -0.9
v 1 0 -0.9
v 1 0 -1.1
v 1 0.1 -0.9
v 1 0.1 -1.1
v 1 0.2 -0.9
v 1 0.2 -1.1
v 0 0 1
v 0 0.1 1
v 0 0.2 1
v 0.2 0 1
v 0.2 0.1 1
v 0.2 0.2 1
v -0.1 0 0.8
v -0.1 0.1 0.8
v -0.1 0.2 0.8
v 0 0 0.8
v 0 0.1 0.8
v 0 0.2 0.8
v 0.2 0 0.8
v 0.2 0.1 0.8
v 0.2 0.2 0.8
v 0.3 0 0.8
v 0.3 0.1 0.8
v 0.3 0.2 0.8
v -0.2 0 0.6
v -0.2 0.1 0.6
v -0.2 0.2 0.6
v -0.1 0 0.6
v -0.1 0.1 0.6
v -0.1 0.2 0.6
v 0.3 0 0.6
v 0.3 0.1 0.6
v 0.3 0.2 0.6
v 0.4 0 0.6
v 0.4 0.1 0.6
v 0.4 0.2 0.6
v -0.3 0 0.4
v -0.3 0.1 0.4
v -0.3 0.2 0.4
v -0.2 0 0.4
v -0.2 0.1 0.4
v -0.2 0.2 0.4
v 0.4 0 0.3
v 0.4 0.1 0.3
v 0.4 0.2 0.3
v 0.5 0 0.3
v 0.5 0.2 0.3
v -0.4 0 0.2
v -0.4 0.1 0.2
v -0.4 0.2 0.2
v -0.3 0 0.2
v -0.3 0.1 0.2
v -0.3 0.2 0.2
v -0.4 0.2 0.1
v -0.4 0.3 0.1
v -0.3 0.2 0.1
v -0.3 0.3 0.1
v 0.5 0 0.1
v 0.5 0.1 0.1
v 0.5 0.2 0.1
v 0.6 0 0.1
v 0.6 0.1 0.1
v 0.6 0.2 0.1
v -0.5 0 0
v -0.5 0.1 0
v -0.5 0.2 0
v -0.5 0.3 0
v -0.4 0 0
v -0.4 0.1 0
v -0.4 0.2 0
v -0.4 0.3 0
v 0.5 0.2 0
v 0.5 0.3 0
v 0.6 0.2 0
v 0.6 0.3 0
v 0.6 0.1 -0.1
v 0.6 0.2 -0.1
v 0.7 0.1 -0.1
v 0.7 0.2 -0.1
v -0.6 0 -0.2
v -0.6 0.1 -0.2
v -0.6 0.2 -0.2
v -0.5 0 -0.2
v -0.5 0.1 -0.2
v -0.5 0.2 -0.2
v 0.5 0.2 -0.2
v 0.5 0.3 -0.2
v 0.6 0 -0.2
v 0.6 0.1 -0.2
v 0.6 0.2 -0.2
v 0.7 0 -0.2
v 0.7 0.1 -0.2
v 0.7 0.2 -0.2
v 0.7 0.3 -0.2
v -0.7 0 -0.4
v -0.7 0.1 -0.4
v -0.7 0.2 -0.4
v -0.6 0 -0.4
v -0.6 0.1 -0.4
v -0.6 0.2 -0.4
v 0.6 0.2 -0.4
v 0.6 0.3 -0.4
v 0.7 0 -0.4
v 0.7 0.1 -0.4
v 0.7 0.2 -0.4
v 0.7 0.3 -0.4
v 0.8 0 -0.4
v 0.8 0.1 -0.4
v 0.8 0.2 -0.4
v -0.8 0 -0.6
v -0.8 0.1 -0.6
v -0.8 0.2 -0.6
v -0.7 0 -0.6
v -0.7 0.1 -0.6
v -0.7 0.2 -0.6
v 0.8 0 -0.7
v 0.8 0.1 -0.7
v 0.8 0.2 -0.7
v 0.9 0 -0.7
v 0.9 0.2 -0.7
v -0.9 0 -0.8
v -0.9 0.1 -0.8
v -0.9 0.2 -0.8
v -0.8 0 -0.8
v -0.8 0.1 -0.8
v -0.8 0.2 -0.8
v 0.9 0 -0.9
v 0.9 0.1 -0.9
v 0.9 0.2 -0.9
v 1 0 -0.9
v 1 0.1 -0.9
v 1 0.2 -0.9
v -1 0 -1
v -1 0.1 -1
v -1 0.2 -1
v -0.9 0 -1
v -0.9 0.1 -1
v -0.9 0.2 -1
v -0.5 0.2 -0.1
v -0.5 0.3 -0.1
v -0.3 0.2 -0.1
v -0.3 0.3 -0.1
v 0.5 0.2 -0.1
v 0.5 0.3 -0.1
v 0.6 0.2 -0.1
v 0.6 0.3 -0.1
v 0.5 0.2 -0.3
v 0.5 0.3 -0.3
v 0.7 0.2 -0.3
v 0.7 0.3 -0.3
v 0.6 0.2 -0.5
v 0.6 0.3 -0.5
v 0.7 0.2 -0.5
v 0.7 0.3 -0.5
v -1 0 -1.1
v -1 0.1 -1.1
v -1 0.2 -1.1
v -0.9 0.1 -1.1
v -0.9 0.2 -1.1
v -0.5 0.1 -1.1
v -0.5 0.2 -1.1
v -0.3 0.1 -1.1
v -0.3 0.2 -1.1
v 0 0.1 -1.1
v 0 0.2 -1.1
v 0.2 0.1 -1.1
v 0.2 0.2 -1.1
v 0.5 0.1 -1.1
v 0.5 0.2 -1.1
v 0.7 0.1 -1.1
v 0.7 0.2 -1.1
v 0.9 0.1 -1.1
v 0.9 0.2 -1.1
v 1 0 -1.1
v 1 0.1 -1.1
v 1 0.2 -1.1
v 0 0 1
v 0.2 0 1
v -0.1 0 0.8
v 0 0 0.8
v 0.2 0 0.8
v 0.3 0 0.8
v -0.2 0 0.6
v -0.1 0 0.6
v 0.3 0 0.6
v 0.4 0 0.6
v -0.3 0 0.4
v -0.2 0 0.4
v 0.4 0 0.3
v 0.5 0 0.3
v -0.4 0 0.2
v -0.3 0 0.2
v 0.4 0 0.2
v 0.5 0 0.2
v 0.5 0 0.1
v 0.6 0 0.1
v -0.5 0 0
v -0.4 0 0
v -0.6 0 -0.2
v -0.5 0 -0.2
v 0.6 0 -0.2
v 0.7 0 -0.2
v -0.7 0 -0.4
v -0.6 0 -0.4
v 0.7 0 -0.4
v 0.8 0 -0.4
v -0.8 0 -0.6
v -0.7 0 -0.6
v 0.8 0 -0.7
v 0.9 0 -0.7
v -0.9 0 -0.8
v -0.8 0 -0.8
v 0.8 0 -0.8
v 0.9 0 -0.8
v 0.9 0 -0.9
v 1 0 -0.9
v -1 0 -1
v -0.9 0 -1
v -1 0 -1.1
v 1 0 -1.1
v 0.6 0.1 -0.1
v 0.7 0.1 -0.1
v 0.6 0.1 -0.2
v 0.7 0.1 -0.2
v 0 0.2 1
v 0.2 0.2 1
v -0.1 0.2 0.8
v 0 0.2 0.8
v 0.2 0.2 0.8
v 0.3 0.2 0.8
v -0.2 0.2 0.6
v -0.1 0.2 0.6
v 0 0.2 0.6
v 0.3 0.2 0.6
v 0.4 0.2 0.6
v 0.2 0.2 0.5
v 0.3 0.2 0.5
v -0.3 0.2 0.4
v -0.2 0.2 0.4
v -0.1 0.2 0.4
v 0.3 0.2 0.3
v 0.4 0.2 0.3
v 0.5 0.2 0.3
v -0.4 0.2 0.2
v -0.3 0.2 0.2
v -0.2 0.2 0.2
v 0.4 0.2 0.2
v 0.5 0.2 0.2
v -0.4 0.2 0.1
v -0.3 0.2 0.1
v 0.5 0.2 0.1
v 0.6 0.2 0.1
v 0.5 0.2 0
v 0.6 0.2 0
v -0.5 0.2 -0.1
v -0.3 0.2 -0.1
v 0.5 0.2 -0.1
v 0.6 0.2 -0.1
v 0.7 0.2 -0.1
v -0.6 0.2 -0.2
v -0.5 0.2 -0.2
v 0.5 0.2 -0.2
v 0.6 0.2 -0.2
v 0.7 0.2 -0.2
v 0.5 0.2 -0.3
v 0.7 0.2 -0.3
v -0.7 0.2 -0.4
v -0.6 0.2 -0.4
v -0.5 0.2 -0.4
v 0.6 0.2 -0.4
v 0.7 0.2 -0.4
v 0.8 0.2 -0.4
v 0.6 0.2 -0.5
v 0.7 0.2 -0.5
v -0.8 0.2 -0.6
v -0.7 0.2 -0.6
v -0.6 0.2 -0.6
v 0.8 0.2 -0.7
v 0.9 0.2 -0.7
v -0.9 0.2 -0.8
v -0.8 0.2 -0.8
v -0.7 0.2 -0.8
v 0.7 0.2 -0.8
v 0.8 0.2 -0.8
v 0.8 0.2 -0.9
v 0.9 0.2 -0.9
v 1 0.2 -0.9
v -1 0.2 -1
v -0.9 0.2 -1
v -0.8 0.2 -1
v -1 0.2 -1.1
v -0.9 0.2 -1.1
v -0.5 0.2 -1.1
v -0.3 0.2 -1.1
v 0 0.2 -1.1
v 0.2 0.2 -1.1
v 0.5 0.2 -1.1
v 0.7 0.2 -1.1
v 0.9 0.2 -1.1
v 1 0.2 -1.1
v -0.4 0.3 0.1
v -0.3 0.3 0.1
v -0.5 0.3 0
v -0.4 0.3 0
v 0.5 0.3 0
v 0.6 0.3 0
v -0.5 0.3 -0.1
v -0.3 0.3 -0.1
v 0.5 0.3 -0.1
v 0.6 0.3 -0.1
v 0.5 0.3 -0.2
v 0.7 0.3 -0.2
v 0.5 0.3 -0.3
v 0.7 0.3 -0.3
v 0.6 0.3 -0.4
v 0.7 0.3 -0.4
v 0.6 0.3 -0.5
v 0.7 0.3 -0.5

# faces
f 3/4/1 2/4/1 1/4/1
f 4/4/1 2/4/1 3/4/1
f 5/3/1 4/3/1 3/3/1
f 6/3/1 4/3/1 5/3/1
f 9/4/1 8/4/1 7/4/1
f 10/4/1 8/4/1 9/4/1
f 11/3/1 10/3/1 9/3/1
f 12/3/1 10/3/1 11/3/1
f 15/4/1 14/4/1 13/4/1
f 16/4/1 14/4/1 15/4/1
f 17/3/1 16/3/1 15/3/1
f 18/3/1 16/3/1 17/3/1
f 21/4/1 20/4/1 19/4/1
f 22/4/1 20/4/1 21/4/1
f 23/3/1 22/3/1 21/3/1
f 24/3/1 22/3/1 23/3/1
f 27/4/1 26/4/1 25/4/1
f 28/4/1 26/4/1 27/4/1
f 29/3/1 28/3/1 27/3/1
f 30/3/1 28/3/1 29/3/1
f 33/4/1 32/4/1 31/4/1
f 34/4/1 32/4/1 33/4/1
f 35/2/1 34/2/1 33/2/1
f 36/2/1 34/2/1 35/2/1
f 37/2/1 34/2/1 36/2/1
f 38/1/1 36/1/1 35/1/1
f 39/1/1 36/1/1 38/1/1
f 42/4/1 41/4/1 40/4/1
f 43/4/1 41/4/1 42/4/1
f 44/4/1 41/4/1 43/4/1
f 45/3/1 43/3/1 42/3/1
f 46/2/1 44/2/1 43/2/1
f 46/3/1 43/3/1 45/3/1
f 47/2/1 44/2/1 46/2/1
f 48/1/1 47/1/1 46/1/1
f 49/1/1 47/1/1 48/1/1
f 52/4/1 51/4/1 50/4/1
f 53/4/1 51/4/1 52/4/1
f 54/3/1 53/3/1 52/3/1
f 55/3/1 53/3/1 54/3/1
f 58/4/1 57/4/1 56/4/1
f 59/4/1 57/4/1 58/4/1
f 60/3/1 59/3/1 58/3/1
f 61/3/1 59/3/1 60/3/1
f 64/4/1 63/4/1 62/4/1
f 65/4/1 63/4/1 64/4/1
f 66/3/1 65/3/1 64/3/1
f 67/3/1 65/3/1 66/3/1
f 70/4/1 69/4/1 68/4/1
f 71/4/1 69/4/1 70/4/1
f 72/3/1 71/3/1 70/3/1
f 73/3/1 71/3/1 72/3/1
f 78/1/1 75/1/1 74/1/1
f 79/1/1 75/1/1 78/1/1
f 80/1/1 77/1/1 76/1/1
f 81/1/1 77/1/1 80/1/1
f 84/1/1 83/1/1 82/1/1
f 85/1/1 83/1/1 84/1/1
f 86/1/2 87/1/2 88/1/2
f 88/1/2 87/1/2 89/1/2
f 90/4/2 91/4/2 92/4/2
f 92/4/2 91/4/2 93/4/2
f 92/3/2 93/3/2 94/3/2
f 94/3/2 93/3/2 95/3/2
f 96/4/2 97/4/2 98/4/2
f 98/4/2 97/4/2 99/4/2
f 98/3/2 99/3/2 100/3/2
f 100/3/2 99/3/2 101/3/2
f 102/4/2 103/4/2 104/4/2
f 104/4/2 103/4/2 105/4/2
f 104/3/2 105/3/2 106/3/2
f 106/3/2 105/3/2 107/3/2
f 109/4/2 110/4/2 111/4/2
f 108/3/2 109/3/2 112/3/2
f 109/4/2 111/4/2 113/4/2
f 112/3/2 109/3/2 113/3/2
f 113/4/2 111/4/2 114/4/2
f 115/4/2 116/4/2 117/4/2
f 117/4/2 116/4/2 118/4/2
f 118/4/2 116/4/2 119/4/2
f 119/4/2 116/4/2 120/4/2
f 117/3/2 118/3/2 121/3/2
f 118/2/2 119/2/2 122/2/2
f 121/3/2 118/3/2 122/3/2
f 122/2/2 119/2/2 123/2/2
f 122/1/2 123/1/2 124/1/2
f 124/1/2 123/1/2 125/1/2
f 126/4/2 127/4/2 129/4/2
f 129/4/2 127/4/2 130/4/2
f 128/1/2 129/1/2 131/1/2
f 129/2/2 130/2/2 132/2/2
f 131/1/2 129/1/2 132/1/2
f 132/2/2 130/2/2 133/2/2
f 133/2/2 130/2/2 134/2/2
f 132/1/2 133/1/2 136/1/2
f 136/1/2 133/1/2 137/1/2
f 134/1/2 135/1/2 138/1/2
f 138/1/2 135/1/2 139/1/2
f 140/4/2 141/4/2 142/4/2
f 142/4/2 141/4/2 143/4/2
f 142/3/2 143/3/2 144/3/2
f 144/3/2 143/3/2 145/3/2
f 146/3/2 147/3/2 149/3/2
f 147/4/2 148/4/2 149/4/2
f 149/4/2 148/4/2 150/4/2
f 146/3/2 149/3/2 151/3/2
f 149/3/2 150/3/2 151/3/2
f 151/3/2 150/3/2 152/3/2
f 153/4/2 154/4/2 155/4/2
f 155/4/2 154/4/2 156/4/2
f 155/3/2 156/3/2 157/3/2
f 157/3/2 156/3/2 158/3/2
f 162/4/3 160/4/3 159/4/3
f 163/3/3 161/3/3 160/3/3
f 163/4/3 160/4/3 162/4/3
f 164/3/3 161/3/3 163/3/3
f 168/4/3 166/4/3 165/4/3
f 169/3/3 167/3/3 166/3/3
f 169/4/3 166/4/3 168/4/3
f 170/3/3 167/3/3 169/3/3
f 174/4/3 172/4/3 171/4/3
f 175/3/3 173/3/3 172/3/3
f 175/4/3 172/4/3 174/4/3
f 176/3/3 173/3/3 175/3/3
f 180/4/3 178/4/3 177/4/3
f 181/3/3 179/3/3 178/3/3
f 181/4/3 178/4/3 180/4/3
f 182/3/3 179/3/3 181/3/3
f 186/4/3 184/4/3 183/4/3
f 187/3/3 185/3/3 184/3/3
f 187/4/3 184/4/3 186/4/3
f 188/3/3 185/3/3 187/3/3
f 192/4/3 190/4/3 189/4/3
f 193/3/3 191/3/3 190/3/3
f 193/4/3 190/4/3 192/4/3
f 194/3/3 191/3/3 193/3/3
f 198/3/3 196/3/3 195/3/3
f 198/3/3 197/3/3 196/3/3
f 199/3/3 197/3/3 198/3/3
f 203/4/3 201/4/3 200/4/3
f 204/3/3 202/3/3 201/3/3
f 204/4/3 201/4/3 203/4/3
f 205/3/3 202/3/3 204/3/3
f 208/1/3 207/1/3 206/1/3
f 209/1/3 207/1/3 208/1/3
f 213/4/3 211/4/3 210/4/3
f 214/3/3 212/3/3 211/3/3
f 214/4/3 211/4/3 213/4/3
f 215/3/3 212/3/3 214/3/3
f 220/4/3 217/4/3 216/4/3
f 221/2/3 218/2/3 217/2/3
f 221/4/3 217/4/3 220/4/3
f 222/1/3 219/1/3 218/1/3
f 222/2/3 218/2/3 221/2/3
f 223/1/3 219/1/3 222/1/3
f 226/1/3 225/1/3 224/1/3
f 227/1/3 225/1/3 226/1/3
f 230/1/3 229/1/3 228/1/3
f 231/1/3 229/1/3 230/1/3
f 235/4/3 233/4/3 232/4/3
f 236/3/3 234/3/3 233/3/3
f 236/4/3 233/4/3 235/4/3
f 237/3/3 234/3/3 236/3/3
f 242/1/3 239/1/3 238/1/3
f 243/4/3 241/4/3 240/4/3
f 244/4/3 241/4/3 243/4/3
f 245/1/3 239/1/3 242/1/3
f 246/1/3 239/1/3 245/1/3
f 250/4/3 248/4/3 247/4/3
f 251/3/3 249/3/3 248/3/3
f 251/4/3 248/4/3 250/4/3
f 252/3/3 249/3/3 251/3/3
f 257/1/3 254/1/3 253/1/3
f 258/1/3 254/1/3 257/1/3
f 259/4/3 256/4/3 255/4/3
f 260/3/3 257/3/3 256/3/3
f 260/4/3 256/4/3 259/4/3
f 261/3/3 257/3/3 260/3/3
f 265/4/3 263/4/3 262/4/3
f 266/3/3 264/3/3 263/3/3
f 266/4/3 263/4/3 265/4/3
f 267/3/3 264/3/3 266/3/3
f 271/3/3 269/3/3 268/3/3
f 271/3/3 270/3/3 269/3/3
f 272/3/3 270/3/3 271/3/3
f 276/4/3 274/4/3 273/4/3
f 277/3/3 275/3/3 274/3/3
f 277/4/3 274/4/3 276/4/3
f 278/3/3 275/3/3 277/3/3
f 282/4/3 280/4/3 279/4/3
f 283/3/3 281/3/3 280/3/3
f 283/4/3 280/4/3 282/4/3
f 284/3/3 281/3/3 283/3/3
f 288/4/3 286/4/3 285/4/3
f 289/3/3 287/3/3 286/3/3
f 289/4/3 286/4/3 288/4/3
f 290/3/3 287/3/3 289/3/3
f 291/1/4 292/1/4 293/1/4
f 293/1/4 292/1/4 294/1/4
f 295/1/4 296/1/4 297/1/4
f 297/1/4 296/1/4 298/1/4
f 299/1/4 300/1/4 301/1/4
f 301/1/4 300/1/4 302/1/4
f 303/1/4 304/1/4 305/1/4
f 305/1/4 304/1/4 306/1/4
f 307/4/4 308/4/4 310/4/4
f 308/3/4 309/3/4 310/3/4
f 310/3/4 309/3/4 311/3/4
f 307/4/4 310/4/4 312/4/4
f 310/4/4 311/4/4 312/4/4
f 312/4/4 311/4/4 313/4/4
f 307/4/4 312/4/4 314/4/4
f 312/2/4 313/2/4 314/2/4
f 314/2/4 313/2/4 315/2/4
f 307/4/4 314/4/4 316/4/4
f 314/4/4 315/4/4 316/4/4
f 316/4/4 315/4/4 317/4/4
f 307/4/4 316/4/4 318/4/4
f 316/2/4 317/2/4 318/2/4
f 318/2/4 317/2/4 319/2/4
f 307/4/4 318/4/4 320/4/4
f 318/4/4 319/4/4 320/4/4
f 320/4/4 319/4/4 321/4/4
f 307/4/4 320/4/4 322/4/4
f 320/2/4 321/2/4 322/2/4
f 322/2/4 321/2/4 323/2/4
f 307/4/4 322/4/4 324/4/4
f 322/4/4 323/4/4 324/4/4
f 324/4/4 323/4/4 325/4/4
f 307/4/4 324/4/4 326/4/4
f 324/3/4 325/3/4 327/3/4
f 326/4/4 324/4/4 327/4/4
f 327/3/4 325/3/4 328/3/4
f 332/4/5 330/4/5 329/4/5
f 333/4/5 330/4/5 332/4/5
f 336/4/5 332/4/5 331/4/5
f 336/4/5 334/4/5 333/4/5
f 336/4/5 333/4/5 332/4/5
f 337/4/5 334/4/5 336/4/5
f 340/4/5 336/4/5 335/4/5
f 340/4/5 338/4/5 337/4/5
f 340/4/5 337/4/5 336/4/5
f 341/4/5 338/4/5 340/4/5
f 341/4/5 340/4/5 339/4/5
f 344/4/5 341/4/5 339/4/5
f 345/3/5 342/3/5 341/3/5
f 345/4/5 341/4/5 344/4/5
f 346/3/5 342/3/5 345/3/5
f 347/4/5 344/4/5 343/4/5
f 347/4/5 345/4/5 344/4/5
f 347/4/5 346/4/5 345/4/5
f 350/4/5 347/4/5 343/4/5
f 350/4/5 348/4/5 347/4/5
f 352/4/5 350/4/5 349/4/5
f 353/4/5 348/4/5 350/4/5
f 353/4/5 350/4/5 352/4/5
f 356/4/5 352/4/5 351/4/5
f 356/4/5 354/4/5 353/4/5
f 356/4/5 353/4/5 352/4/5
f 357/4/5 354/4/5 356/4/5
f 360/4/5 356/4/5 355/4/5
f 360/4/5 358/4/5 357/4/5
f 360/4/5 357/4/5 356/4/5
f 361/4/5 358/4/5 360/4/5
f 361/4/5 360/4/5 359/4/5
f 364/4/5 361/4/5 359/4/5
f 365/3/5 362/3/5 361/3/5
f 365/4/5 361/4/5 364/4/5
f 366/3/5 362/3/5 365/3/5
f 367/4/5 364/4/5 363/4/5
f 367/4/5 365/4/5 364/4/5
f 367/4/5 366/4/5 365/4/5
f 370/4/5 367/4/5 363/4/5
f 370/4/5 368/4/5 367/4/5
f 371/4/5 370/4/5 369/4/5
f 372/4/5 368/4/5 370/4/5
f 372/4/5 370/4/5 371/4/5
f 375/1/5 374/1/5 373/1/5
f 376/1/5 374/1/5 375/1/5
f 377/3/6 378/3/6 380/3/6
f 380/3/6 378/3/6 381/3/6
f 379/3/6 380/3/6 384/3/6
f 380/2/6 381/2/6 385/2/6
f 384/3/6 380/3/6 385/3/6
f 381/3/6 382/3/6 386/3/6
f 385/2/6 381/2/6 388/2/6
f 386/3/6 387/3/6 388/3/6
f 381/3/6 386/3/6 388/3/6
f 388/3/6 387/3/6 389/3/6
f 383/3/6 384/3/6 391/3/6
f 384/4/6 385/4/6 392/4/6
f 391/3/6 384/3/6 392/3/6
f 389/3/6 387/3/6 393/3/6
f 388/4/6 389/4/6 393/4/6
f 393/3/6 387/3/6 394/3/6
f 390/3/6 391/3/6 397/3/6
f 391/4/6 392/4/6 398/4/6
f 397/3/6 391/3/6 398/3/6
f 394/3/6 395/3/6 399/3/6
f 393/4/6 394/4/6 399/4/6
f 399/3/6 395/3/6 400/3/6
f 396/3/6 397/3/6 401/3/6
f 397/4/6 398/4/6 402/4/6
f 401/3/6 397/3/6 402/3/6
f 399/4/6 400/4/6 403/4/6
f 399/4/6 403/4/6 405/4/6
f 403/3/6 404/3/6 405/3/6
f 405/3/6 404/3/6 406/3/6
f 402/4/6 398/4/6 408/4/6
f 399/4/6 405/4/6 409/4/6
f 407/2/6 408/2/6 413/2/6
f 409/2/6 410/2/6 414/2/6
f 399/4/6 409/4/6 414/4/6
f 410/1/6 411/1/6 415/1/6
f 414/2/6 410/2/6 415/2/6
f 415/1/6 411/1/6 416/1/6
f 399/4/6 414/4/6 417/4/6
f 412/3/6 413/3/6 420/3/6
f 413/2/6 408/2/6 421/2/6
f 420/3/6 413/3/6 421/3/6
f 417/2/6 418/2/6 422/2/6
f 422/2/6 418/2/6 423/2/6
f 417/2/6 422/2/6 425/2/6
f 423/3/6 424/3/6 426/3/6
f 419/3/6 420/3/6 428/3/6
f 420/4/6 421/4/6 429/4/6
f 428/3/6 420/3/6 429/3/6
f 426/3/6 424/3/6 430/3/6
f 427/3/6 428/3/6 433/3/6
f 428/4/6 429/4/6 434/4/6
f 433/3/6 428/3/6 434/3/6
f 425/2/6 426/2/6 435/2/6
f 430/3/6 431/3/6 435/3/6
f 426/3/6 430/3/6 435/3/6
f 435/3/6 431/3/6 436/3/6
f 435/4/6 436/4/6 437/4/6
f 436/3/6 431/3/6 437/3/6
f 437/3/6 431/3/6 438/3/6
f 432/3/6 433/3/6 441/3/6
f 433/4/6 434/4/6 442/4/6
f 441/3/6 433/3/6 442/3/6
f 440/3/6 441/3/6 443/3/6
f 441/4/6 442/4/6 444/4/6
f 443/3/6 441/3/6 444/3/6
f 421/2/6 408/2/6 445/2/6
f 444/4/6 442/4/6 445/4/6
f 434/4/6 429/4/6 445/4/6
f 442/4/6 434/4/6 445/4/6
f 429/4/6 421/4/6 445/4/6
f 408/4/6 398/4/6 446/4/6
f 445/2/6 408/2/6 446/2/6
f 398/4/6 392/4/6 447/4/6
f 446/4/6 398/4/6 447/4/6
f 392/4/6 385/4/6 447/4/6
f 385/2/6 388/2/6 447/2/6
f 388/4/6 393/4/6 448/4/6
f 447/2/6 388/2/6 448/2/6
f 393/4/6 399/4/6 448/4/6
f 399/4/6 417/4/6 448/4/6
f 425/2/6 435/2/6 449/2/6
f 448/4/6 417/4/6 449/4/6
f 417/2/6 425/2/6 449/2/6
f 435/4/6 437/4/6 450/4/6
f 449/2/6 435/2/6 450/2/6
f 437/4/6 438/4/6 450/4/6
f 438/3/6 439/3/6 451/3/6
f 450/4/6 438/4/6 451/4/6
f 451/3/6 439/3/6 452/3/6
f 453/1/6 454/1/6 456/1/6
f 455/1/6 456/1/6 459/1/6
f 456/1/6 454/1/6 460/1/6
f 459/1/6 456/1/6 460/1/6
f 457/1/6 458/1/6 461/1/6
f 461/1/6 458/1/6 462/1/6
f 463/1/6 464/1/6 465/1/6
f 465/1/6 464/1/6 466/1/6
f 467/1/6 468/1/6 469/1/6
f 469/1/6 468/1/6 470/1/6
